<mxfile host="app.diagrams.net" modified="2024-05-05T08:55:30.993Z" agent="Mozilla/5.0 (Windows NT 10.0; Win64; x64) AppleWebKit/537.36 (KHTML, like Gecko) Chrome/124.0.0.0 Safari/537.36" version="24.3.1" etag="N-1l_RKJ0DmQmPp5t-ly" type="github">
  <diagram name="Page-1" id="qe2nZPRfLycqLiFEQihi">
    <mxGraphModel>
      <root>
        <mxCell id="0" />
        <mxCell id="1" parent="0" />
      </root>
    </mxGraphModel>
  </diagram>
</mxfile>
